<mxfile host="app.diagrams.net" agent="Mozilla/5.0 (Windows NT 10.0; Win64; x64) AppleWebKit/537.36 (KHTML, like Gecko) Chrome/137.0.0.0 Safari/537.36" version="27.1.5">
  <diagram name="Page-1" id="gL4SWV541my3Lbdg5tZe">
    <mxGraphModel dx="1665" dy="749" grid="1" gridSize="10" guides="1" tooltips="1" connect="1" arrows="1" fold="1" page="1" pageScale="1" pageWidth="2000" pageHeight="2000" math="0" shadow="0">
      <root>
        <mxCell id="0" />
        <mxCell id="1" parent="0" />
        <mxCell id="M3et-NntpfOH5REhAvnA-1" value="Utilizator" style="rounded=0;whiteSpace=wrap;html=1;" vertex="1" parent="1">
          <mxGeometry x="220" y="80" width="120" height="60" as="geometry" />
        </mxCell>
        <mxCell id="M3et-NntpfOH5REhAvnA-2" value="Utilizator" style="rounded=0;whiteSpace=wrap;html=1;" vertex="1" parent="1">
          <mxGeometry x="220" y="470" width="120" height="60" as="geometry" />
        </mxCell>
        <mxCell id="M3et-NntpfOH5REhAvnA-3" value="Interfata&amp;nbsp;" style="rounded=0;whiteSpace=wrap;html=1;" vertex="1" parent="1">
          <mxGeometry x="420" y="80" width="120" height="60" as="geometry" />
        </mxCell>
        <mxCell id="M3et-NntpfOH5REhAvnA-4" value="Interfata&amp;nbsp;" style="rounded=0;whiteSpace=wrap;html=1;" vertex="1" parent="1">
          <mxGeometry x="420" y="470" width="120" height="60" as="geometry" />
        </mxCell>
        <mxCell id="M3et-NntpfOH5REhAvnA-5" value="Acces date" style="rounded=0;whiteSpace=wrap;html=1;" vertex="1" parent="1">
          <mxGeometry x="580" y="80" width="120" height="60" as="geometry" />
        </mxCell>
        <mxCell id="M3et-NntpfOH5REhAvnA-6" value="Acces date" style="rounded=0;whiteSpace=wrap;html=1;" vertex="1" parent="1">
          <mxGeometry x="580" y="470" width="120" height="60" as="geometry" />
        </mxCell>
        <mxCell id="M3et-NntpfOH5REhAvnA-7" value="Motor Steganografie&amp;nbsp;" style="rounded=0;whiteSpace=wrap;html=1;" vertex="1" parent="1">
          <mxGeometry x="780" y="80" width="120" height="60" as="geometry" />
        </mxCell>
        <mxCell id="M3et-NntpfOH5REhAvnA-8" value="Motor Steganografie" style="rounded=0;whiteSpace=wrap;html=1;" vertex="1" parent="1">
          <mxGeometry x="780" y="470" width="120" height="60" as="geometry" />
        </mxCell>
        <mxCell id="M3et-NntpfOH5REhAvnA-10" value="" style="endArrow=none;html=1;rounded=0;exitX=0.5;exitY=0;exitDx=0;exitDy=0;entryX=0.5;entryY=1;entryDx=0;entryDy=0;strokeColor=light-dark(#000000,#0000CC);" edge="1" parent="1" source="M3et-NntpfOH5REhAvnA-2" target="M3et-NntpfOH5REhAvnA-1">
          <mxGeometry width="50" height="50" relative="1" as="geometry">
            <mxPoint x="630" y="300" as="sourcePoint" />
            <mxPoint x="680" y="250" as="targetPoint" />
          </mxGeometry>
        </mxCell>
        <mxCell id="M3et-NntpfOH5REhAvnA-11" value="" style="endArrow=none;html=1;rounded=0;exitX=0.5;exitY=0;exitDx=0;exitDy=0;entryX=0.5;entryY=1;entryDx=0;entryDy=0;strokeColor=light-dark(#000000,#0000CC);" edge="1" parent="1" source="M3et-NntpfOH5REhAvnA-4" target="M3et-NntpfOH5REhAvnA-3">
          <mxGeometry width="50" height="50" relative="1" as="geometry">
            <mxPoint x="630" y="300" as="sourcePoint" />
            <mxPoint x="680" y="250" as="targetPoint" />
          </mxGeometry>
        </mxCell>
        <mxCell id="M3et-NntpfOH5REhAvnA-12" value="" style="endArrow=none;html=1;rounded=0;entryX=0.5;entryY=1;entryDx=0;entryDy=0;strokeColor=light-dark(#000000,#0000CC);" edge="1" parent="1" source="M3et-NntpfOH5REhAvnA-6" target="M3et-NntpfOH5REhAvnA-5">
          <mxGeometry width="50" height="50" relative="1" as="geometry">
            <mxPoint x="610" y="300" as="sourcePoint" />
            <mxPoint x="660" y="250" as="targetPoint" />
          </mxGeometry>
        </mxCell>
        <mxCell id="M3et-NntpfOH5REhAvnA-13" value="" style="endArrow=none;html=1;rounded=0;entryX=0.5;entryY=1;entryDx=0;entryDy=0;exitX=0.5;exitY=0;exitDx=0;exitDy=0;strokeColor=light-dark(#000000,#0000CC);" edge="1" parent="1" source="M3et-NntpfOH5REhAvnA-28" target="M3et-NntpfOH5REhAvnA-7">
          <mxGeometry width="50" height="50" relative="1" as="geometry">
            <mxPoint x="580" y="300" as="sourcePoint" />
            <mxPoint x="630" y="250" as="targetPoint" />
          </mxGeometry>
        </mxCell>
        <mxCell id="M3et-NntpfOH5REhAvnA-14" value="Sistem fisiere" style="rounded=0;whiteSpace=wrap;html=1;" vertex="1" parent="1">
          <mxGeometry x="950" y="80" width="120" height="60" as="geometry" />
        </mxCell>
        <mxCell id="M3et-NntpfOH5REhAvnA-15" value="Sistem fisiere" style="rounded=0;whiteSpace=wrap;html=1;" vertex="1" parent="1">
          <mxGeometry x="950" y="470" width="120" height="60" as="geometry" />
        </mxCell>
        <mxCell id="M3et-NntpfOH5REhAvnA-16" value="" style="endArrow=none;html=1;rounded=0;entryX=0.5;entryY=1;entryDx=0;entryDy=0;exitX=0.5;exitY=0;exitDx=0;exitDy=0;strokeColor=light-dark(#000000,#0000CC);" edge="1" parent="1" source="M3et-NntpfOH5REhAvnA-15" target="M3et-NntpfOH5REhAvnA-14">
          <mxGeometry width="50" height="50" relative="1" as="geometry">
            <mxPoint x="750" y="300" as="sourcePoint" />
            <mxPoint x="800" y="250" as="targetPoint" />
          </mxGeometry>
        </mxCell>
        <mxCell id="M3et-NntpfOH5REhAvnA-18" value="" style="endArrow=classic;html=1;rounded=0;strokeColor=light-dark(#000000,#3333FF);" edge="1" parent="1">
          <mxGeometry width="50" height="50" relative="1" as="geometry">
            <mxPoint x="280" y="190" as="sourcePoint" />
            <mxPoint x="480" y="190" as="targetPoint" />
          </mxGeometry>
        </mxCell>
        <mxCell id="M3et-NntpfOH5REhAvnA-21" value="&lt;font style=&quot;color: light-dark(rgb(0, 0, 0), rgb(153, 153, 255));&quot;&gt;Selecteaza suport(imagine/audio)&lt;/font&gt;" style="text;html=1;align=center;verticalAlign=middle;resizable=0;points=[];autosize=1;strokeColor=none;fillColor=none;" vertex="1" parent="1">
          <mxGeometry x="280" y="160" width="200" height="30" as="geometry" />
        </mxCell>
        <mxCell id="M3et-NntpfOH5REhAvnA-22" value="" style="endArrow=classic;html=1;rounded=0;strokeColor=light-dark(#000000,#3333FF);" edge="1" parent="1">
          <mxGeometry width="50" height="50" relative="1" as="geometry">
            <mxPoint x="480" y="230" as="sourcePoint" />
            <mxPoint x="640" y="230" as="targetPoint" />
          </mxGeometry>
        </mxCell>
        <mxCell id="M3et-NntpfOH5REhAvnA-23" value="&lt;font style=&quot;color: light-dark(rgb(0, 0, 0), rgb(153, 153, 255));&quot;&gt;Incarcare fisier cover&lt;/font&gt;" style="text;html=1;align=center;verticalAlign=middle;resizable=0;points=[];autosize=1;strokeColor=none;fillColor=none;" vertex="1" parent="1">
          <mxGeometry x="500" y="200" width="130" height="30" as="geometry" />
        </mxCell>
        <mxCell id="M3et-NntpfOH5REhAvnA-24" value="" style="endArrow=classic;html=1;rounded=0;strokeColor=light-dark(#000000,#3333FF);" edge="1" parent="1">
          <mxGeometry width="50" height="50" relative="1" as="geometry">
            <mxPoint x="640" y="270" as="sourcePoint" />
            <mxPoint x="1010" y="270" as="targetPoint" />
          </mxGeometry>
        </mxCell>
        <mxCell id="M3et-NntpfOH5REhAvnA-25" value="&lt;font style=&quot;color: light-dark(rgb(0, 0, 0), rgb(153, 153, 255));&quot;&gt;Citire octeti&lt;/font&gt;&lt;div&gt;&lt;br&gt;&lt;/div&gt;" style="text;html=1;align=center;verticalAlign=middle;resizable=0;points=[];autosize=1;strokeColor=none;fillColor=none;" vertex="1" parent="1">
          <mxGeometry x="880" y="240" width="80" height="40" as="geometry" />
        </mxCell>
        <mxCell id="M3et-NntpfOH5REhAvnA-27" value="&lt;font style=&quot;color: light-dark(rgb(0, 0, 0), rgb(153, 153, 255));&quot;&gt;Transmitere octeti + paramtetri&lt;/font&gt;" style="text;html=1;align=center;verticalAlign=middle;resizable=0;points=[];autosize=1;strokeColor=light-dark(#000000,transparent);fillColor=none;" vertex="1" parent="1">
          <mxGeometry x="640" y="280" width="190" height="30" as="geometry" />
        </mxCell>
        <mxCell id="M3et-NntpfOH5REhAvnA-32" value="" style="endArrow=none;html=1;rounded=0;entryX=0.5;entryY=1;entryDx=0;entryDy=0;exitX=0.5;exitY=0;exitDx=0;exitDy=0;strokeColor=light-dark(#000000,#0000CC);" edge="1" parent="1" source="M3et-NntpfOH5REhAvnA-8" target="M3et-NntpfOH5REhAvnA-28">
          <mxGeometry width="50" height="50" relative="1" as="geometry">
            <mxPoint x="840" y="470" as="sourcePoint" />
            <mxPoint x="840" y="140" as="targetPoint" />
          </mxGeometry>
        </mxCell>
        <mxCell id="M3et-NntpfOH5REhAvnA-28" value="" style="rounded=0;whiteSpace=wrap;html=1;dashed=1;strokeColor=light-dark(#000000,#0000FF);" vertex="1" parent="1">
          <mxGeometry x="830" y="310" width="20" height="80" as="geometry" />
        </mxCell>
        <mxCell id="M3et-NntpfOH5REhAvnA-33" value="&lt;font style=&quot;color: light-dark(rgb(0, 0, 0), rgb(153, 153, 255));&quot;&gt;Procesare LSB/shuffle&lt;/font&gt;" style="text;html=1;align=center;verticalAlign=middle;resizable=0;points=[];autosize=1;strokeColor=none;fillColor=none;" vertex="1" parent="1">
          <mxGeometry x="850" y="335" width="140" height="30" as="geometry" />
        </mxCell>
        <mxCell id="M3et-NntpfOH5REhAvnA-37" value="" style="endArrow=classic;html=1;rounded=0;entryX=0;entryY=0;entryDx=0;entryDy=0;strokeColor=light-dark(#000000,#3333FF);" edge="1" parent="1" target="M3et-NntpfOH5REhAvnA-28">
          <mxGeometry width="50" height="50" relative="1" as="geometry">
            <mxPoint x="640" y="310" as="sourcePoint" />
            <mxPoint x="950" y="360" as="targetPoint" />
          </mxGeometry>
        </mxCell>
        <mxCell id="M3et-NntpfOH5REhAvnA-38" value="" style="endArrow=classic;html=1;rounded=0;exitX=0;exitY=1;exitDx=0;exitDy=0;dashed=1;strokeColor=light-dark(#000000,#3333FF);" edge="1" parent="1" source="M3et-NntpfOH5REhAvnA-28">
          <mxGeometry width="50" height="50" relative="1" as="geometry">
            <mxPoint x="900" y="410" as="sourcePoint" />
            <mxPoint x="640" y="390" as="targetPoint" />
          </mxGeometry>
        </mxCell>
        <mxCell id="M3et-NntpfOH5REhAvnA-39" value="&lt;font style=&quot;color: light-dark(rgb(0, 0, 0), rgb(153, 153, 255));&quot;&gt;Octeti modificati&lt;/font&gt;" style="text;html=1;align=center;verticalAlign=middle;resizable=0;points=[];autosize=1;strokeColor=none;fillColor=none;" vertex="1" parent="1">
          <mxGeometry x="680" y="360" width="110" height="30" as="geometry" />
        </mxCell>
        <mxCell id="M3et-NntpfOH5REhAvnA-41" value="" style="endArrow=classic;html=1;rounded=0;strokeColor=light-dark(#000000,#3333FF);" edge="1" parent="1">
          <mxGeometry width="50" height="50" relative="1" as="geometry">
            <mxPoint x="640" y="430" as="sourcePoint" />
            <mxPoint x="1010" y="430" as="targetPoint" />
          </mxGeometry>
        </mxCell>
        <mxCell id="M3et-NntpfOH5REhAvnA-42" value="&lt;font style=&quot;color: light-dark(rgb(0, 0, 0), rgb(153, 153, 255));&quot;&gt;Salvare fisier modificat&lt;/font&gt;" style="text;html=1;align=center;verticalAlign=middle;resizable=0;points=[];autosize=1;strokeColor=none;fillColor=none;" vertex="1" parent="1">
          <mxGeometry x="850" y="398" width="140" height="30" as="geometry" />
        </mxCell>
        <mxCell id="M3et-NntpfOH5REhAvnA-44" value="" style="endArrow=classic;html=1;rounded=0;strokeColor=light-dark(#000000,#3333FF);" edge="1" parent="1">
          <mxGeometry width="50" height="50" relative="1" as="geometry">
            <mxPoint x="480" y="450" as="sourcePoint" />
            <mxPoint x="280" y="450" as="targetPoint" />
          </mxGeometry>
        </mxCell>
        <mxCell id="M3et-NntpfOH5REhAvnA-46" value="&lt;font style=&quot;color: light-dark(rgb(0, 0, 0), rgb(153, 153, 255));&quot;&gt;Confirmare succes + previzualizare&lt;/font&gt;" style="text;html=1;align=center;verticalAlign=middle;resizable=0;points=[];autosize=1;strokeColor=none;fillColor=none;" vertex="1" parent="1">
          <mxGeometry x="275" y="420" width="210" height="30" as="geometry" />
        </mxCell>
      </root>
    </mxGraphModel>
  </diagram>
</mxfile>
